<svg xmlns="http://www.w3.org/2000/svg" height="514.912" width="529.294">
<style>
	#letter {
		fill: #040404
	}
	#border {
		fill: none;
		stroke: #000048;
		stroke-width: 33.415
	}
	@media (prefers-color-scheme: dark) {
    	#letter { fill: #f0ffff }
		#border { stroke: #e0ffff }
	}
</style>
  <g fill-rule="evenodd">
    <path id="letter" d="M101.453 61.125c-.214.243-.273 4.29-.273 18.656v18.346H82.642c-16.703 0-18.551.034-18.67.345-.174.451-.174 191.835 0 192.286.192.499 42.293.532 42.792.034.267-.268.312-5.554.312-37.438v-37.127h106.343v37.127l.312 37.438c.469.468 42.362.468 42.831 0s.471-191.883 0-192.354c-.266-.265-3.066-.312-18.779-.312h-18.468V79.775c0-15.614-.046-18.399-.312-18.665-.469-.469-117.138-.454-117.55.015m74.626 61.25c0 15.614.046 18.399.312 18.665s3.051.312 18.67.312h18.358v31.654H107.075v-31.654h18.537c16.703 0 18.551-.034 18.67-.345.073-.19.133-8.589.133-18.665v-18.319h31.663v18.353"/>
    <path id="letter" d="M298.029 225.22c-.419.444-.381 231.564.037 231.955.451.42 45.955.42 46.406 0 .258-.24.299-5.531.299-37.712V382.03h34.204v18.577c0 15.839.044 18.618.299 18.856s3.254.279 20.355.279h20.055v18.577c0 15.839.044 18.618.3 18.856.451.42 45.954.42 46.405 0s.451-42.596 0-43.016c-.256-.238-3.253-.279-20.355-.279h-20.055v-18.675c0-15.924-.044-18.715-.299-18.954s-3.24-.279-20.25-.279h-19.95V306.41h19.95l20.249-.279c.256-.238.299-3.03.299-18.954v-18.675h20.055l20.355-.279c.45-.42.45-42.596 0-43.016s-45.955-.42-46.406 0c-.256.238-.3 3.017-.3 18.856v18.577h-20.055l-20.355.279c-.255.238-.299 3.017-.299 18.856v18.577h-34.205v-37.433l-.299-37.712c-.45-.418-46.047-.405-46.443.013"/>
  </g>
  <path id="border" d="M16.707 16.708h495.879v481.498H16.707z"/>
</svg>