<?xml version="1.0" standalone="no"?>
<!DOCTYPE svg PUBLIC "-//W3C//DTD SVG 20010904//EN"
 "http://www.w3.org/TR/2001/REC-SVG-20010904/DTD/svg10.dtd">
<svg version="1.0" xmlns="http://www.w3.org/2000/svg"
 width="529.000000pt" height="529.000000pt" viewBox="0 0 529.000000 529.000000"
 preserveAspectRatio="xMidYMid meet">
<metadata>
Created by potrace 1.14, written by Peter Selinger 2001-2017
</metadata>
<g transform="translate(0.000000,529.000000) scale(0.100000,-0.100000)"
fill="#000000" stroke="none">
<path d="M0 2650 l0 -2570 2645 0 2645 0 0 2570 0 2570 -2645 0 -2645 0 0
-2570z m4953 2225 c2 -5 3 -1011 3 -2235 l-1 -2225 -2310 0 -2310 0 -1 2230
c0 1227 3 2232 7 2235 16 11 4608 6 4612 -5z"/>
<path d="M1053 4612 l-42 -3 0 -172 c0 -95 0 -178 0 -184 -1 -10 -45 -13 -186
-13 -141 0 -185 -3 -186 -12 -3 -47 0 -119 6 -128 3 -5 3 -10 -2 -10 -9 0 -9
-1727 0 -1736 3 -3 3 -12 0 -20 -3 -8 -1 -15 3 -15 26 -4 401 -5 412 -1 9 3
12 87 12 373 l0 369 33 0 c363 5 1021 -1 1026 -8 3 -6 6 -173 6 -371 0 -236 3
-361 10 -362 58 -8 415 -2 418 6 2 5 3 438 3 960 l-1 950 -187 3 -186 2 -1
181 c0 100 -2 184 -5 187 -6 5 -1059 9 -1133 4z m704 -437 c8 -2 9 -15 3 -39
-4 -21 -4 -39 1 -42 5 -3 7 -10 3 -15 -3 -5 -5 -51 -4 -102 0 -50 1 -106 0
-124 -1 -43 12 -46 209 -47 l164 -1 0 -140 c-1 -77 -1 -147 -2 -156 -1 -14
-57 -15 -531 -15 l-531 0 2 157 1 157 180 1 c100 0 183 3 186 6 3 2 5 86 6
185 l0 179 85 3 c90 3 209 0 228 -7z"/>
<path d="M2987 2968 c-15 -9 -17 -2297 -2 -2306 17 -12 454 -9 458 3 2 5 3
173 3 372 -1 235 3 364 9 365 6 1 83 2 172 3 l161 1 0 -146 c0 -80 1 -164 1
-188 l1 -43 196 1 c108 1 199 -1 202 -5 3 -3 6 -87 7 -185 0 -173 1 -180 20
-181 11 -1 116 -2 233 -3 l212 -1 1 25 c7 120 2 400 -6 404 -5 2 -97 3 -204 4
l-194 0 0 186 c-1 124 -4 186 -11 187 -6 1 -92 3 -191 4 -99 2 -185 4 -192 4
-8 1 -11 93 -11 346 l-1 345 47 0 c249 2 339 4 348 7 7 3 11 64 11 183 0 99 2
182 4 185 3 2 94 5 202 5 108 1 197 5 198 8 7 43 2 415 -6 420 -10 6 -432 11
-450 5 -6 -2 -10 -72 -10 -188 l0 -185 -35 -1 c-19 0 -108 -1 -197 -2 -89 -1
-164 -5 -168 -8 -3 -4 -7 -87 -8 -185 l-2 -179 -169 0 -170 0 -1 367 c0 202
-4 371 -9 375 -9 10 -433 11 -449 1z"/>
</g>
</svg>
